<svg width="512" height="512" viewBox="0 0 512 512" fill="none" xmlns="http://www.w3.org/2000/svg">
<path d="M144 336H448C449.838 336 451.621 335.367 453.047 334.207C454.474 333.047 455.457 331.432 455.832 329.632L495.832 137.632C496.075 136.468 496.055 135.264 495.774 134.109C495.493 132.954 494.957 131.875 494.207 130.953C493.457 130.03 492.511 129.287 491.437 128.776C490.363 128.265 489.189 128 488 128H105.159L87.787 54.167C87.3739 52.412 86.38 50.8479 84.9666 49.7285C83.5531 48.6091 81.803 48 80 48H24C21.8783 48 19.8434 48.8429 18.3431 50.3431C16.8429 51.8434 16 53.8783 16 56C16 58.1217 16.8429 60.1566 18.3431 61.6569C19.8434 63.1571 21.8783 64 24 64H73.664L134.257 321.522C127.8 323.595 122.167 327.662 118.167 333.138C114.168 338.615 112.009 345.219 112 352V368C112.01 376.484 115.384 384.618 121.383 390.617C127.382 396.616 135.516 399.99 144 400H144.022C139.558 405.941 136.837 413.009 136.164 420.41C135.492 427.811 136.894 435.253 140.215 441.901C143.535 448.55 148.642 454.142 154.963 458.051C161.284 461.959 168.568 464.029 176 464.029C183.432 464.029 190.716 461.959 197.037 458.051C203.358 454.142 208.465 448.55 211.785 441.901C215.106 435.253 216.508 427.811 215.836 420.41C215.163 413.009 212.442 405.941 207.978 400H368.022C363.558 405.941 360.837 413.009 360.164 420.41C359.492 427.811 360.894 435.253 364.215 441.901C367.535 448.55 372.642 454.142 378.963 458.051C385.284 461.959 392.568 464.029 400 464.029C407.432 464.029 414.716 461.959 421.037 458.051C427.358 454.142 432.465 448.55 435.785 441.901C439.106 435.253 440.508 427.811 439.836 420.41C439.163 413.009 436.442 405.941 431.978 400H464C466.122 400 468.157 399.157 469.657 397.657C471.157 396.157 472 394.122 472 392C472 389.878 471.157 387.843 469.657 386.343C468.157 384.843 466.122 384 464 384H144C139.758 383.995 135.691 382.308 132.692 379.308C129.692 376.309 128.005 372.242 128 368V352C128.005 347.758 129.692 343.691 132.692 340.692C135.691 337.692 139.758 336.005 144 336ZM150.336 320L142.807 288H186.938L190.938 320H150.338H150.336ZM323.66 240L322.326 272H269.674L268.34 240H323.66ZM267.674 224L266.34 192H325.66L324.326 224H267.674ZM253.66 272H201.06L197.06 240H252.324L253.66 272ZM254.326 288L255.66 320H207.06L203.06 288H254.326ZM270.34 288H321.66L320.326 320H271.674L270.34 288ZM337.674 288H388.938L384.938 320H336.338L337.674 288ZM338.34 272L339.674 240H394.938L390.938 272H338.34ZM411.062 240H458.162L451.5 272H407.062L411.062 240ZM413.062 224L417.062 192H468.162L461.5 224H413.062ZM396.938 224H340.338L341.672 192H400.936L396.938 224ZM342.338 176L343.672 144H406.936L402.936 176H342.338ZM326.324 176H265.674L264.34 144H327.66L326.324 176ZM249.658 176H189.058L185.058 144H248.322L249.658 176ZM250.324 192L251.658 224H195.058L191.058 192H250.324ZM178.936 224H127.746L120.217 192H174.936L178.936 224ZM180.936 240L184.936 272H139.036L131.507 240H180.936ZM441.5 320H401.062L405.062 288H448.162L441.5 320ZM471.5 176H419.062L423.062 144H478.162L471.5 176ZM168.938 144L172.938 176H116.454L108.925 144H168.938ZM200 424C200 428.747 198.592 433.387 195.955 437.334C193.318 441.28 189.57 444.357 185.184 446.173C180.799 447.99 175.973 448.465 171.318 447.539C166.662 446.613 162.386 444.327 159.029 440.971C155.673 437.614 153.387 433.338 152.461 428.682C151.535 424.027 152.01 419.201 153.827 414.816C155.643 410.43 158.72 406.682 162.666 404.045C166.613 401.408 171.253 400 176 400C182.363 400.007 188.463 402.538 192.962 407.038C197.462 411.537 199.993 417.637 200 424ZM424 424C424 428.747 422.592 433.387 419.955 437.334C417.318 441.28 413.57 444.357 409.184 446.173C404.799 447.99 399.973 448.465 395.318 447.539C390.662 446.613 386.386 444.327 383.029 440.971C379.673 437.614 377.387 433.338 376.461 428.682C375.535 424.027 376.01 419.201 377.827 414.816C379.643 410.43 382.72 406.682 386.666 404.045C390.613 401.408 395.253 400 400 400C406.363 400.007 412.463 402.538 416.962 407.038C421.462 411.537 423.993 417.637 424 424Z" fill="#B88485"/>
<path d="M176 432C180.418 432 184 428.418 184 424C184 419.582 180.418 416 176 416C171.582 416 168 419.582 168 424C168 428.418 171.582 432 176 432Z" fill="#B88485"/>
<path d="M400 432C404.418 432 408 428.418 408 424C408 419.582 404.418 416 400 416C395.582 416 392 419.582 392 424C392 428.418 395.582 432 400 432Z" fill="#B88485"/>
</svg>
