<svg width="452" height="289" viewBox="0 0 452 289" fill="none" xmlns="http://www.w3.org/2000/svg">
<g clip-path="url(#clip0)">
<path d="M21.0028 275.387C27.2725 284.292 40.5791 288.115 40.5791 288.115C40.5791 288.115 43.7204 277.499 37.4507 268.594C31.181 259.688 17.8745 255.865 17.8745 255.865C17.8745 255.865 14.7331 266.481 21.0028 275.387Z" fill="#2F2E41"/>
<path d="M25.3123 272.457C36.6316 277.673 40.9911 288.033 40.9911 288.033C40.9911 288.033 26.9982 289.937 15.6788 284.721C4.35945 279.505 0 269.144 0 269.144C0 269.144 13.9929 267.241 25.3123 272.457Z" fill="#B88485"/>
<path d="M279.094 13.874H208.469V14.6468H279.094V13.874Z" fill="#F2F2F2"/>
<path d="M259.924 14.4536H258.916V21.6016H259.924V14.4536Z" fill="#F2F2F2"/>
<path d="M229.152 14.4536H228.143V21.6016H229.152V14.4536Z" fill="#F2F2F2"/>
<path d="M314.911 50.9663H244.286V51.7391H314.911V50.9663Z" fill="#F2F2F2"/>
<path d="M264.465 44.0115H263.456V51.1595H264.465V44.0115Z" fill="#F2F2F2"/>
<path d="M295.237 44.0115H294.228V51.1595H295.237V44.0115Z" fill="#F2F2F2"/>
<path d="M408.741 68.3533H338.116V69.1261H408.741V68.3533Z" fill="#F2F2F2"/>
<path d="M358.295 61.3986H357.286V68.5466H358.295V61.3986Z" fill="#F2F2F2"/>
<path d="M389.067 61.3986H388.058V68.5466H389.067V61.3986Z" fill="#F2F2F2"/>
<path d="M401.679 247.633H331.054V248.406H401.679V247.633Z" fill="#F2F2F2"/>
<path d="M351.232 240.678H350.224V247.826H351.232V240.678Z" fill="#F2F2F2"/>
<path d="M382.005 240.678H380.996V247.826H382.005V240.678Z" fill="#F2F2F2"/>
<path d="M281.112 123.605H210.487V124.378H281.112V123.605Z" fill="#F2F2F2"/>
<path d="M230.666 116.651H229.657V123.799H230.666V116.651Z" fill="#F2F2F2"/>
<path d="M261.438 116.651H260.429V123.799H261.438V116.651Z" fill="#F2F2F2"/>
<path d="M303.308 216.723H232.683V217.495H303.308V216.723Z" fill="#F2F2F2"/>
<path d="M252.862 209.768H251.853V216.916H252.862V209.768Z" fill="#F2F2F2"/>
<path d="M283.634 209.768H282.625V216.916H283.634V209.768Z" fill="#F2F2F2"/>
<path d="M416.308 188.517H345.683V189.29H416.308V188.517Z" fill="#F2F2F2"/>
<path d="M365.862 181.562H364.853V188.71H365.862V181.562Z" fill="#F2F2F2"/>
<path d="M396.634 181.562H395.625V188.71H396.634V181.562Z" fill="#F2F2F2"/>
<path d="M182.646 271.309H63.1963V270.651H181.787V238.728H73.2382L67.965 230.314L68.7398 230.029L73.7789 238.07H182.646V271.309Z" fill="#2F2E41"/>
<path d="M79.0943 287.435C84.0776 287.435 88.1175 284.34 88.1175 280.523C88.1175 276.707 84.0776 273.612 79.0943 273.612C74.1109 273.612 70.071 276.707 70.071 280.523C70.071 284.34 74.1109 287.435 79.0943 287.435Z" fill="#442C2E"/>
<path d="M168.037 287.435C173.021 287.435 177.06 284.34 177.06 280.523C177.06 276.707 173.021 273.612 168.037 273.612C163.054 273.612 159.014 276.707 159.014 280.523C159.014 284.34 163.054 287.435 168.037 287.435Z" fill="#442C2E"/>
<path d="M272.879 138.024C275.963 138.024 278.464 136.109 278.464 133.746C278.464 131.383 275.963 129.468 272.879 129.468C269.794 129.468 267.293 131.383 267.293 133.746C267.293 136.109 269.794 138.024 272.879 138.024Z" fill="#442C2E"/>
<path d="M195.422 227.868H61.1596L32.1084 155.137H225.34L225.165 155.565L195.422 227.868ZM61.7953 227.21H194.792L224.169 155.796H33.2699L61.7953 227.21Z" fill="#2F2E41"/>
<path d="M184.942 224.083H67.014L41.4972 159.58H211.22L211.065 159.96L184.942 224.083Z" fill="#FEDBD0"/>
<path d="M227.748 148.64L226.917 148.471L232.588 132.1H265.574V132.759H233.249L227.748 148.64Z" fill="#2F2E41"/>
<path d="M215.685 177.187H41.4965V177.845H215.685V177.187Z" fill="#2F2E41"/>
<path d="M205.709 201.436H51.1824V202.094H205.709V201.436Z" fill="#2F2E41"/>
<path d="M129.152 155.466H128.292V227.539H129.152V155.466Z" fill="#2F2E41"/>
<path d="M167.626 155.446L161.458 227.516L162.315 227.559L168.484 155.489L167.626 155.446Z" fill="#2F2E41"/>
<path d="M89.8353 155.445L88.9777 155.488L95.1106 227.56L95.9683 227.517L89.8353 155.445Z" fill="#2F2E41"/>
<path d="M452 287.852H0V288.625H452V287.852Z" fill="#2F2E41"/>
<path d="M300.364 23.9076C300.364 23.9076 307.738 39.9833 303.2 42.4565C298.662 44.9297 318.516 65.1275 318.516 65.1275L342.341 60.1811L329.294 43.2809C329.294 43.2809 327.592 26.3807 327.592 23.9075C327.592 21.4343 300.364 23.9076 300.364 23.9076Z" fill="#A0616A"/>
<path opacity="0.1" d="M300.364 23.9076C300.364 23.9076 307.738 39.9833 303.2 42.4565C298.662 44.9297 318.516 65.1275 318.516 65.1275L342.341 60.1811L329.294 43.2809C329.294 43.2809 327.592 26.3807 327.592 23.9075C327.592 21.4343 300.364 23.9076 300.364 23.9076Z" fill="black"/>
<path d="M287.985 138.499C287.985 138.499 285.833 159.109 287.985 169.826C290.138 180.543 293.367 210.222 293.367 210.222C293.367 210.222 293.367 266.281 305.207 267.105C317.047 267.929 325.658 268.754 326.734 265.456C327.81 262.159 321.352 260.51 324.581 258.861C327.81 257.212 328.887 251.441 324.581 244.846C320.276 238.251 324.581 171.475 324.581 171.475L345.032 213.519C345.032 213.519 347.185 248.144 349.337 253.09C351.49 258.037 347.185 267.105 354.719 267.929C362.254 268.754 370.864 263.807 375.17 262.159C379.475 260.51 368.712 260.51 370.864 259.685C373.017 258.861 379.475 256.388 377.323 255.563C375.17 254.739 373.017 215.168 373.017 215.168C373.017 215.168 367.097 130.667 359.563 127.37C352.028 124.072 347.185 129.752 347.185 129.752L287.985 138.499Z" fill="#2F2E41"/>
<path d="M307.36 263.807V270.403C307.36 270.403 297.672 288.33 307.36 288.33C317.047 288.33 324.581 290.188 324.581 287.715V265.456L307.36 263.807Z" fill="#442C2E"/>
<path d="M370.864 263.796V270.391C370.864 270.391 380.552 288.319 370.864 288.319C361.177 288.319 353.643 290.177 353.643 287.703V265.445L370.864 263.796Z" fill="#442C2E"/>
<path d="M315.432 35.8613C326.133 35.8613 334.807 29.2176 334.807 21.0222C334.807 12.8267 326.133 6.18298 315.432 6.18298C304.732 6.18298 296.058 12.8267 296.058 21.0222C296.058 29.2176 304.732 35.8613 315.432 35.8613Z" fill="#A0616A"/>
<path d="M309.512 48.6395C309.512 48.6395 314.894 61.0055 323.505 58.5323L332.116 56.0591L347.185 135.201C347.185 135.201 335.345 148.392 318.123 140.148C300.902 131.904 309.512 48.6395 309.512 48.6395Z" fill="#B88485"/>
<path d="M324.581 46.1663L329.425 38.3345C329.425 38.3345 357.948 48.6395 362.254 51.9371C366.559 55.2347 366.559 60.1811 366.559 60.1811L359.025 80.791C359.025 80.791 361.177 126.133 361.177 127.782C361.177 129.431 368.712 138.499 363.33 135.201C357.948 131.904 356.872 128.606 352.566 133.553C348.261 138.499 338.574 144.27 338.574 144.27L324.581 46.1663Z" fill="#442C2E"/>
<path d="M362.254 105.523L359.025 128.606C359.025 128.606 339.65 141.796 343.956 142.621C348.261 143.445 350.414 140.148 350.414 140.148C350.414 140.148 357.948 145.918 362.254 142.621C366.559 139.323 377.323 107.996 377.323 107.996L362.254 105.523Z" fill="#A0616A"/>
<path d="M315.845 0.0501794C311.55 -0.0674226 306.954 -0.125596 303.332 1.64716C301.666 2.53683 300.205 3.63255 299.008 4.88947C295.481 8.30446 292.433 12.6013 293.744 16.8384L295.265 16.3838C295.265 17.5148 294.937 18.6317 294.304 19.6536C294.518 19.1764 295.236 19.9478 295.044 20.4305L293.368 24.6423C296.123 23.8687 299.551 25.4351 299.97 27.6598C300.162 22.7678 300.824 17.1582 306.006 14.2937C308.618 12.8492 311.925 12.4082 315.107 12.0166C318.042 11.6553 321.119 11.3108 323.93 12.0509C326.742 12.791 329.136 14.9932 328.498 17.2172C329.795 16.8752 331.245 17.5671 331.885 18.4955C332.526 19.424 332.559 20.5192 332.579 21.5692C333.961 22.3172 335.533 20.8319 336.096 19.6098C337.418 16.7412 338.593 13.6876 337.881 10.6949C337.169 7.70217 333.985 4.84215 330.013 4.832C330.495 4.42644 330.752 3.89315 330.73 3.34493L327.457 3.13308C328.288 3.04295 329.052 2.73432 329.619 2.26004C328.304 3.36776 317.97 0.108372 315.845 0.0501794Z" fill="#2F2E41"/>
<path d="M314.894 43.6931C314.894 43.6931 306.132 37.1166 302.979 37.5195C299.825 37.9223 295.52 43.6931 295.52 43.6931C295.52 43.6931 269.687 50.2883 270.764 56.8835C271.84 63.4787 283.68 95.6302 283.68 95.6302C283.68 95.6302 293.367 134.377 284.756 138.499C276.145 142.621 325.658 153.338 326.734 148.392C327.81 143.445 329.963 93.9814 326.734 86.5618C323.505 79.1422 314.894 43.6931 314.894 43.6931Z" fill="#442C2E"/>
<path d="M352.566 56.8835H365.876C365.876 56.8835 375.17 88.2106 376.246 91.5082C377.323 94.8058 379.475 110.469 378.399 110.469C377.323 110.469 355.795 107.172 355.795 109.645L352.566 56.8835Z" fill="#442C2E"/>
<path d="M352.116 134.46H301.165C296.193 116.941 295.778 100.015 301.165 83.8441H352.116C343.894 99.7245 343.38 116.534 352.116 134.46Z" fill="#FEDBD0"/>
<path d="M280.451 112.943L295.52 117.889C295.52 117.889 324.581 121.187 324.581 112.118C324.581 103.05 295.52 107.996 295.52 107.996L285.832 105.624L280.451 112.943Z" fill="#A0616A"/>
<path d="M283.68 51.9371L270.764 54.4103L261.077 98.1034C261.077 98.1034 257.847 109.645 263.229 110.469C268.611 111.294 283.68 117.889 283.68 117.889C283.68 117.889 285.833 105.523 290.138 105.523L279.375 98.9278L285.833 70.0738L283.68 51.9371Z" fill="#442C2E"/>
<path d="M101.018 136.356H30.3932V137.129H101.018V136.356Z" fill="#F2F2F2"/>
<path d="M50.5718 129.401H49.5629V136.549H50.5718V129.401Z" fill="#F2F2F2"/>
<path d="M81.3441 129.401H80.3352V136.549H81.3441V129.401Z" fill="#F2F2F2"/>
<path d="M125.737 21.988H55.1119V22.7607H125.737V21.988Z" fill="#F2F2F2"/>
<path d="M106.567 22.5675H105.558V29.7155H106.567V22.5675Z" fill="#F2F2F2"/>
<path d="M75.7949 22.5675H74.786V29.7155H75.7949V22.5675Z" fill="#F2F2F2"/>
<path d="M196.866 98.1045H126.241V98.8773H196.866V98.1045Z" fill="#F2F2F2"/>
<path d="M177.697 98.6841H176.688V105.832H177.697V98.6841Z" fill="#F2F2F2"/>
<path d="M146.924 98.6841H145.916V105.832H146.924V98.6841Z" fill="#F2F2F2"/>
<path d="M76.8039 97.7181H6.17896V98.4909H76.8039V97.7181Z" fill="#F2F2F2"/>
<path d="M57.6343 98.2977H56.6254V105.446H57.6343V98.2977Z" fill="#F2F2F2"/>
<path d="M26.862 98.2977H25.853V105.446H26.862V98.2977Z" fill="#F2F2F2"/>
<path d="M161.554 59.0803H90.929V59.853H161.554V59.0803Z" fill="#F2F2F2"/>
<path d="M111.107 52.1255H110.099V59.2735H111.107V52.1255Z" fill="#F2F2F2"/>
<path d="M141.88 52.1255H140.871V59.2735H141.88V52.1255Z" fill="#F2F2F2"/>
</g>
<defs>
<clipPath id="clip0">
<rect width="452" height="289" fill="white"/>
</clipPath>
</defs>
</svg>
